<?xml version="1.0" encoding="UTF-8"?>
<svg xmlns="http://www.w3.org/2000/svg" xmlns:xlink="http://www.w3.org/1999/xlink" width="65px" height="49px" viewBox="0 0 65 49" version="1.1">
<g id="surface1">
<path style=" stroke:none;fill-rule:nonzero;fill:rgb(0%,0%,0%);fill-opacity:1;" d="M 10.625 4.15625 C 10.34375 4.269531 10.503906 4.675781 11.449219 6.316406 C 15.292969 12.90625 19.507812 18.882812 25.1875 25.78125 C 25.660156 26.355469 25.996094 26.832031 25.953125 26.832031 C 25.523438 26.84375 23.316406 27.21875 22.59375 27.410156 C 20.609375 27.90625 18.007812 29.027344 17.183594 29.707031 C 16.859375 29.980469 16.847656 29.992188 17.074219 30.160156 C 17.355469 30.375 18.054688 30.523438 19.460938 30.691406 C 21.140625 30.898438 26.3125 30.75 27.949219 30.464844 C 28.65625 30.34375 29.300781 30.230469 29.367188 30.230469 C 29.433594 30.230469 30 30.625 30.605469 31.113281 C 37.617188 36.671875 44.128906 40.9375 49.933594 43.746094 C 51.90625 44.710938 52.726562 45.003906 52.886719 44.84375 C 53.054688 44.675781 52.886719 44.515625 51.679688 43.734375 C 47.589844 41.0625 45.210938 39.421875 41.503906 36.726562 C 36.355469 32.96875 32.34375 29.777344 32.34375 29.425781 C 32.34375 29.210938 35.316406 28.800781 39.609375 28.429688 C 44.0625 28.03125 45.175781 27.953125 47.332031 27.851562 C 49.867188 27.726562 50.855469 27.488281 51.421875 26.855469 C 51.535156 26.730469 51.804688 26.210938 52.019531 25.6875 C 52.230469 25.167969 52.546875 24.601562 52.695312 24.445312 L 52.976562 24.136719 L 53.5625 24.464844 C 54.183594 24.804688 54.542969 24.886719 54.542969 24.660156 C 54.542969 24.589844 54.136719 24.105469 53.628906 23.582031 L 52.714844 22.644531 L 52.796875 22.066406 L 52.875 21.476562 L 52.3125 21.554688 L 51.746094 21.625 L 50.722656 20.671875 C 50.148438 20.152344 49.503906 19.632812 49.28125 19.53125 C 48.785156 19.292969 48.007812 19.167969 48.007812 19.335938 C 48.007812 19.394531 48.433594 20.050781 48.953125 20.785156 C 49.765625 21.917969 49.886719 22.15625 49.785156 22.347656 C 49.71875 22.472656 48.964844 23.605469 48.097656 24.875 L 46.519531 27.171875 L 45.59375 27.171875 C 45.097656 27.171875 42.40625 27.25 39.621094 27.339844 C 36.027344 27.453125 33.988281 27.464844 32.601562 27.386719 C 30.292969 27.261719 29.773438 27.171875 29.46875 26.796875 C 29.34375 26.652344 28.835938 26.039062 28.339844 25.460938 C 27.855469 24.875 26.933594 23.777344 26.289062 23.003906 C 25.648438 22.246094 24.613281 21 23.96875 20.230469 C 21.804688 17.652344 18.246094 13.121094 14.242188 7.855469 C 11.585938 4.347656 11.167969 3.929688 10.625 4.15625 Z M 10.625 4.15625 "/>
</g>
</svg>
