<svg width="850" height="850" viewBox="0 0 850 850" fill="none" xmlns="http://www.w3.org/2000/svg">
<g opacity="0.1">
<path d="M293.527 161.472C303.252 161.472 312.559 165.423 319.314 172.419L359.715 214.257C366.169 220.94 369.776 229.868 369.776 239.159V292.09C369.776 301.381 366.169 310.309 359.715 316.992L319.314 358.83C312.559 365.825 303.252 369.776 293.527 369.776H237.722C227.997 369.776 218.689 365.825 211.934 358.83L171.533 316.992C165.079 310.309 161.472 301.381 161.472 292.09L161.472 239.159C161.472 229.868 165.079 220.94 171.533 214.257L211.934 172.419C218.689 165.423 227.997 161.472 237.722 161.472L293.527 161.472Z" stroke="#37DEC7" stroke-width="4.19545"/>
<path d="M612.276 161.472C622.001 161.472 631.308 165.423 638.063 172.419L678.464 214.257C684.918 220.94 688.525 229.868 688.525 239.159V292.09C688.525 301.381 684.918 310.309 678.464 316.992L638.063 358.83C631.308 365.825 622.001 369.776 612.276 369.776H556.471C546.746 369.776 537.438 365.825 530.683 358.83L490.282 316.992C483.828 310.309 480.221 301.381 480.221 292.09L480.221 239.159C480.221 229.868 483.828 220.94 490.282 214.257L530.683 172.419C537.438 165.423 546.746 161.472 556.471 161.472L612.276 161.472Z" stroke="#37DEC7" stroke-width="4.19545"/>
<path d="M293.527 480.222C303.252 480.222 312.559 484.172 319.314 491.168L359.715 533.006C366.169 539.689 369.776 548.617 369.776 557.908V610.839C369.776 620.13 366.169 629.058 359.715 635.741L319.314 677.579C312.559 684.575 303.252 688.526 293.527 688.526H237.722C227.997 688.526 218.689 684.575 211.934 677.579L171.533 635.741C165.079 629.058 161.472 620.13 161.472 610.839L161.472 557.908C161.472 548.617 165.079 539.689 171.533 533.006L211.934 491.168C218.689 484.172 227.997 480.222 237.722 480.222L293.527 480.222Z" stroke="#37DEC7" stroke-width="4.19545"/>
<path d="M612.276 480.222C622.001 480.222 631.308 484.172 638.063 491.168L678.464 533.006C684.918 539.689 688.525 548.617 688.525 557.908V610.839C688.525 620.13 684.918 629.058 678.464 635.741L638.063 677.579C631.308 684.575 622.001 688.526 612.276 688.526H556.471C546.746 688.526 537.438 684.575 530.683 677.579L490.282 635.741C483.828 629.058 480.221 620.13 480.221 610.839L480.221 557.908C480.221 548.617 483.828 539.689 490.282 533.006L530.683 491.168C537.438 484.172 546.746 480.222 556.471 480.222L612.276 480.222Z" stroke="#37DEC7" stroke-width="4.19545"/>
<path d="M134.152 320.847C143.877 320.847 153.184 324.798 159.94 331.793L200.341 373.631C206.794 380.315 210.401 389.243 210.401 398.533V451.465C210.401 460.755 206.794 469.683 200.341 476.367L159.94 518.205C153.184 525.2 143.877 529.151 134.152 529.151H78.347C68.6222 529.151 59.3146 525.2 52.5593 518.204L12.1583 476.367C5.70451 469.683 2.09748 460.755 2.09748 451.465L2.09748 398.533C2.09748 389.243 5.70452 380.315 12.1583 373.631L52.5593 331.793C59.3146 324.798 68.6222 320.847 78.347 320.847L134.152 320.847Z" stroke="#37DEC7" stroke-width="4.19545"/>
<path d="M771.65 320.847C781.375 320.847 790.683 324.798 797.438 331.793L837.839 373.631C844.293 380.315 847.9 389.243 847.9 398.533V451.465C847.9 460.755 844.293 469.683 837.839 476.367L797.438 518.205C790.683 525.2 781.375 529.151 771.65 529.151H715.845C706.12 529.151 696.813 525.2 690.058 518.204L649.657 476.367C643.203 469.683 639.596 460.755 639.596 451.465L639.596 398.533C639.596 389.243 643.203 380.315 649.657 373.631L690.058 331.793C696.813 324.798 706.12 320.847 715.845 320.847L771.65 320.847Z" stroke="#37DEC7" stroke-width="4.19545"/>
<path d="M452.901 2.09772C462.626 2.09772 471.934 6.04865 478.689 13.0442L519.09 54.882C525.544 61.5654 529.151 70.4933 529.151 79.7841V132.715C529.151 142.006 525.544 150.934 519.09 157.617L478.689 199.455C471.934 206.451 462.626 210.402 452.901 210.402H397.096C387.371 210.402 378.064 206.451 371.309 199.455L330.908 157.617C324.454 150.934 320.847 142.006 320.847 132.715L320.847 79.7841C320.847 70.4933 324.454 61.5654 330.908 54.882L371.309 13.0442C378.064 6.04863 387.371 2.09772 397.096 2.09772L452.901 2.09772Z" stroke="#37DEC7" stroke-width="4.19545"/>
<path d="M452.901 639.596C462.626 639.596 471.934 643.547 478.689 650.543L519.09 692.38C525.544 699.064 529.151 707.992 529.151 717.282V770.214C529.151 779.504 525.544 788.432 519.09 795.116L478.689 836.954C471.934 843.949 462.626 847.9 452.901 847.9H397.096C387.371 847.9 378.064 843.949 371.309 836.954L330.908 795.116C324.454 788.432 320.847 779.504 320.847 770.214L320.847 717.282C320.847 707.992 324.454 699.064 330.908 692.38L371.309 650.543C378.064 643.547 387.371 639.596 397.096 639.596L452.901 639.596Z" stroke="#37DEC7" stroke-width="4.19545"/>
</g>
</svg>
