<svg width="399" height="404" viewBox="0 0 399 404" fill="none" xmlns="http://www.w3.org/2000/svg">
<path d="M167.744 170.843C168.184 167.318 166.248 163.924 162.989 162.509C159.73 161.094 155.929 161.997 153.654 164.727L82.1902 250.483C80.9552 251.965 79.7043 253.465 78.7936 254.784C77.9322 256.031 76.3595 258.483 76.3109 261.706C76.2553 265.395 77.8992 268.905 80.769 271.224C83.2757 273.249 86.1662 273.611 87.6756 273.748C89.2716 273.892 91.2251 273.892 93.1538 273.891L124.609 273.891C130.873 273.891 134.005 273.891 136.275 275.157C138.268 276.268 139.821 278.028 140.677 280.143C141.651 282.553 141.262 285.661 140.485 291.876L135.855 328.921C135.414 332.446 137.35 335.84 140.609 337.255C143.868 338.67 147.67 337.766 149.944 335.037L221.408 249.28C222.643 247.799 223.894 246.298 224.805 244.98C225.666 243.733 227.239 241.281 227.288 238.058C227.343 234.369 225.699 230.859 222.829 228.54C220.323 226.514 217.432 226.153 215.923 226.016C214.327 225.872 212.373 225.872 210.444 225.872L178.99 225.872C172.726 225.872 169.594 225.872 167.324 224.607C165.331 223.496 163.777 221.736 162.922 219.621C161.948 217.211 162.336 214.103 163.113 207.888L167.744 170.843Z" stroke="black" stroke-width="5" stroke-linecap="round" stroke-linejoin="round"/>
<path opacity="0.2" d="M92.4342 9.99628C92.8749 6.4709 90.9387 3.07701 87.6796 1.6623C84.4206 0.247588 80.6191 1.15076 78.3446 3.88011L6.88068 89.6368C5.64567 91.1183 4.39476 92.6188 3.48399 93.9374C2.62265 95.1845 1.04996 97.6365 1.00137 100.859C0.945738 104.548 2.58967 108.058 5.45942 110.377C7.96613 112.403 10.8566 112.764 12.3661 112.901C13.9621 113.045 15.9155 113.045 17.8442 113.045L49.2993 113.045C55.5631 113.045 58.695 113.045 60.9651 114.31C62.9584 115.421 64.5117 117.181 65.367 119.297C66.3411 121.706 65.9527 124.814 65.1758 131.029L60.5451 168.074C60.1045 171.6 62.0407 174.993 65.2997 176.408C68.5587 177.823 72.3602 176.92 74.6347 174.19L146.099 88.4337C147.334 86.9522 148.585 85.4517 149.495 84.1331C150.357 82.886 151.929 80.434 151.978 77.2115C152.034 73.5223 150.39 70.0124 147.52 67.6934C145.013 65.6677 142.123 65.3062 140.613 65.1695C139.017 65.025 137.064 65.0254 135.135 65.0257L103.68 65.0257C97.4163 65.0257 94.2844 65.0257 92.0143 63.7603C90.021 62.6491 88.4677 60.8896 87.6123 58.7738C86.6382 56.3643 87.0267 53.2566 87.8036 47.0412L92.4342 9.99628Z" stroke="black" stroke-width="2" stroke-linecap="round" stroke-linejoin="round"/>
<path opacity="0.2" d="M290.231 30.4299C290.672 26.9045 288.736 23.5106 285.477 22.0959C282.218 20.6812 278.416 21.5844 276.142 24.3137L204.678 110.07C203.443 111.552 202.192 113.052 201.281 114.371C200.42 115.618 198.847 118.07 198.798 121.293C198.743 124.982 200.387 128.492 203.257 130.811C205.763 132.836 208.654 133.198 210.163 133.335C211.759 133.479 213.713 133.479 215.641 133.478L247.096 133.478C253.36 133.478 256.492 133.478 258.762 134.744C260.756 135.855 262.309 137.615 263.164 139.73C264.138 142.14 263.75 145.247 262.973 151.463L258.342 188.508C257.902 192.033 259.838 195.427 263.097 196.842C266.356 198.256 270.157 197.353 272.432 194.624L343.896 108.867C345.131 107.386 346.382 105.885 347.292 104.567C348.154 103.32 349.727 100.868 349.775 97.6451C349.831 93.9559 348.187 90.446 345.317 88.127C342.81 86.1013 339.92 85.7398 338.41 85.6031C336.814 85.4586 334.861 85.459 332.932 85.4593L301.477 85.4593C295.213 85.4593 292.081 85.4593 289.811 84.1939C287.818 83.0827 286.265 81.3232 285.409 79.2074C284.435 76.7979 284.824 73.6902 285.601 67.4748L290.231 30.4299Z" stroke="black" stroke-width="2" stroke-linecap="round" stroke-linejoin="round"/>
<path opacity="0.2" d="M338.455 235.583C338.895 232.058 336.959 228.664 333.7 227.249C330.441 225.835 326.64 226.738 324.365 229.467L252.901 315.224C251.666 316.705 250.415 318.206 249.505 319.525C248.643 320.772 247.07 323.224 247.022 326.446C246.966 330.135 248.61 333.645 251.48 335.964C253.987 337.99 256.877 338.351 258.387 338.488C259.983 338.633 261.936 338.632 263.865 338.632L295.32 338.632C301.584 338.632 304.715 338.632 306.986 339.897C308.979 341.009 310.532 342.768 311.388 344.884C312.362 347.293 311.973 350.401 311.196 356.616L306.566 393.661C306.125 397.187 308.061 400.581 311.32 401.995C314.579 403.41 318.381 402.507 320.655 399.778L392.119 314.021C393.354 312.539 394.605 311.039 395.516 309.72C396.377 308.473 397.95 306.021 397.998 302.799C398.054 299.109 396.41 295.6 393.54 293.281C391.034 291.255 388.143 290.893 386.634 290.757C385.038 290.612 383.084 290.613 381.155 290.613L349.701 290.613C343.437 290.613 340.305 290.613 338.035 289.347C336.041 288.236 334.488 286.477 333.633 284.361C332.659 281.951 333.047 278.844 333.824 272.628L338.455 235.583Z" stroke="black" stroke-width="2" stroke-linecap="round" stroke-linejoin="round"/>
</svg>
